<svg xmlns="http://www.w3.org/2000/svg" viewBox="0 0 1024 768">
  <rect width="1024" height="768" fill="#06245B"/>
  <circle cx="910" cy="92" r="190" fill="#10D7E8" opacity=".08"/>
  <circle cx="86" cy="692" r="154" fill="#10D7E8" opacity=".08"/>
  <path d="M0 646c160-82 294-83 401-3 119 89 251 88 396-3 76-48 152-63 227-43v171H0z" fill="#10D7E8" opacity=".08"/>
  <g transform="translate(0 256)">
    <circle cx="128" cy="128" r="116" fill="#10D7E8"/>
    <path d="M20 164c28-22 55-23 82-4 30 21 61 20 92-3 14-10 28-13 42-10v65c-26 21-62 32-108 32-46 0-82-11-108-32z" fill="#06245B"/>
    <circle cx="58" cy="78" r="13" fill="#06245B"/>
    <circle cx="83" cy="113" r="8" fill="#06245B"/>
    <circle cx="173" cy="143" r="10" fill="#06245B"/>
    <path d="M82 58l42 39-42 39" fill="none" stroke="#fff" stroke-linecap="round" stroke-linejoin="round" stroke-width="18"/>
    <path d="M145 117h47" fill="none" stroke="#06245B" stroke-linecap="round" stroke-width="16"/>
    <g fill="none" stroke="#fff" stroke-linecap="round" stroke-linejoin="round" stroke-width="30">
      <path d="M338 92c-9-15-48-19-58 2-13 29 67 21 58 57-7 29-61 26-72 3"/>
      <circle cx="406" cy="128" r="48"/>
      <path d="M520 80v96M520 128c0-27-19-48-46-48s-46 21-46 48 19 48 46 48 46-21 46-48z"/>
      <path d="M640 80v96M640 128c0-27-19-48-46-48s-46 21-46 48 19 48 46 48 46-21 46-48z"/>
    </g>
    <g fill="none" stroke="#10D7E8" stroke-linecap="round" stroke-linejoin="round" stroke-width="30">
      <circle cx="754" cy="128" r="48"/>
      <path d="M884 92c-9-15-48-19-58 2-13 29 67 21 58 57-7 29-61 26-72 3"/>
    </g>
  </g>
</svg>
